<?xml version="1.0" encoding="UTF-8"?>
<svg version="1.1" xmlns="http://www.w3.org/2000/svg" width="280" height="280">
<path d="M0 0 C1.87975525 -0.01073296 1.87975525 -0.01073296 3.79748535 -0.02168274 C5.18386816 -0.02452283 6.57025124 -0.02723458 7.95663452 -0.02983093 C9.4188147 -0.03609854 10.8809933 -0.0427456 12.34317017 -0.04974365 C17.14318743 -0.0707551 21.9432049 -0.08114486 26.74325562 -0.09111023 C28.39854321 -0.09515919 30.05383063 -0.09927616 31.70911789 -0.10346031 C39.48856887 -0.12250737 47.26801041 -0.13673814 55.04748023 -0.14507228 C64.01267201 -0.1548364 72.97761636 -0.18113629 81.94272101 -0.22157317 C88.88133149 -0.25178997 95.81987127 -0.26654651 102.75854623 -0.26985329 C106.898231 -0.27219787 111.03765128 -0.28108041 115.17726517 -0.30631447 C119.07616274 -0.32969727 122.97462362 -0.33378785 126.8735733 -0.32355309 C128.29811689 -0.32306005 129.72268272 -0.32931159 131.14715958 -0.34310913 C144.29265187 -0.46322779 154.82033129 2.68116134 164.61044312 11.73701477 C171.13071955 18.80619203 174.99322611 27.30983845 175.04559326 36.90034485 C175.05419373 38.07489731 175.06279419 39.24944977 175.07165527 40.45959473 C175.0780452 42.38742546 175.0780452 42.38742546 175.08456421 44.35420227 C175.09247007 45.72446905 175.10073932 47.09473377 175.10934448 48.46499634 C175.13551932 52.96320114 175.15087247 57.46141501 175.16513062 61.95967102 C175.17049308 63.51214096 175.1758706 65.06461085 175.18126297 66.61708069 C175.2028894 73.08014623 175.22162182 79.54320933 175.23288536 86.00630188 C175.24909606 95.24537305 175.282206 104.4840218 175.33928621 113.72293377 C175.3781119 120.23100364 175.39753319 126.73896117 175.40280592 133.24714375 C175.40644358 137.12763699 175.41829313 141.00767926 175.45090866 144.88804626 C175.48121113 148.54572028 175.48722356 152.20267572 175.4755249 155.86044884 C175.47520253 157.82387445 175.49952229 159.7872572 175.52490234 161.7505188 C175.44041012 173.90977846 171.52218551 184.4161292 162.89169312 193.14717102 C152.36511236 202.10262032 142.83223831 203.59950253 129.29086304 203.5670929 C127.83118546 203.57444465 126.37151368 203.58303408 124.91184998 203.59275818 C120.96950212 203.61486808 117.02736394 203.61791013 113.08496261 203.61601067 C109.78262226 203.61589046 106.48032553 203.62447501 103.17799741 203.63278818 C95.38030287 203.65198489 87.58271535 203.65491993 79.78500366 203.64814758 C71.76702447 203.64151147 63.74950584 203.66436221 55.73162001 203.70146132 C48.82427502 203.73225063 41.91707747 203.74350833 35.00966531 203.7396245 C30.8945538 203.73756628 26.77980078 203.74289131 22.66475487 203.76751709 C18.7911107 203.78993489 14.91821029 203.7877835 11.04456139 203.76758957 C9.63215038 203.76420571 8.2196878 203.769154 6.80734634 203.78357315 C-5.46822421 203.90014008 -15.54024845 201.13469359 -25.07315063 193.15888977 C-34.17062917 184.16618066 -37.42073922 174.77678128 -37.52600098 162.19042969 C-37.52149933 160.92004349 -37.51699768 159.64965729 -37.51235962 158.34077454 C-37.51807236 156.96652169 -37.5250401 155.59227358 -37.53315735 154.21803284 C-37.55100395 150.50926571 -37.54993658 146.80073627 -37.54421496 143.09193921 C-37.54111083 139.9857528 -37.54722909 136.87961124 -37.55325371 133.77343124 C-37.56726932 126.44086011 -37.56576234 119.10840556 -37.55435181 111.77583313 C-37.54287245 104.23274375 -37.55694976 96.69001001 -37.58374828 89.14696747 C-37.60595936 82.64984287 -37.61253055 76.15282947 -37.60667187 69.65566963 C-37.6033141 65.78436282 -37.60563826 61.91328392 -37.6229229 58.04200935 C-37.6384768 54.39989525 -37.63434422 50.75830498 -37.61561775 47.11621094 C-37.61022062 45.15727911 -37.62438135 43.19832327 -37.63931274 41.23944092 C-37.53989859 29.23858017 -33.72588778 19.30131253 -25.51846313 10.42842102 C-18.30190352 3.77220603 -9.76318292 0.03829618 0 0 Z " fill="#213448" transform="translate(73.10830688476563,39.85282897949219)"/>
<path d="M0 0 C6.35688011 4.19793969 10.46209083 10.52836634 12 18 C12.09956633 19.71164974 12.15425047 21.42621703 12.17578125 23.140625 C12.21155273 24.62369141 12.21155273 24.62369141 12.24804688 26.13671875 C12.29068792 28.19641027 12.32211498 30.25636741 12.34179688 32.31640625 C12.51572064 38.55339323 13.10930523 43.91410903 17 49 C19.27079102 50.74384247 21.369769 51.78230046 24 53 C24.66 53.33 25.32 53.66 26 54 C28.09073095 53.97693276 30.181638 53.94809603 32.27148438 53.88305664 C47.2233548 53.46788653 59.9623296 56.52920856 71.1796875 67.04296875 C77.28463499 73.94369733 80.60719875 82.27748192 84.05957031 90.70605469 C84.96678517 92.91898064 85.89847498 95.12006264 86.8359375 97.3203125 C91.5856997 108.67661144 91.5856997 108.67661144 91 113 C84.55868629 118.00991066 76.80230648 117.60410443 69 117 C60.64389726 115.33259067 53.62289001 112.35828306 47 107 C46.38640625 106.52175781 45.7728125 106.04351562 45.140625 105.55078125 C38.20478315 99.45890246 34.82297649 90.45588351 31.3671875 82.0859375 C31.10494385 81.45373291 30.8427002 80.82152832 30.57250977 80.17016602 C29.85142255 78.40763708 29.15354055 76.6356666 28.45703125 74.86328125 C26.94141229 71.88486651 25.88398397 70.62399097 23 69 C19.59424544 68.50332746 17.78899256 68.51116765 14.84375 70.3359375 C11.89964395 74.58992125 12.49481267 79.01323606 12.5 84.0625 C12.29797443 93.80663961 11.30108334 101.28658652 6.375 109.8125 C-0.79578341 116.41716893 -8.13247592 119.4526573 -17.796875 119.3359375 C-25.84235786 118.49214296 -31.40553397 114.27310752 -36.52734375 108.2578125 C-40.28759666 102.49275632 -41.4471611 97.57868827 -41.41992188 90.74487305 C-41.42839142 89.95036743 -41.43686096 89.15586182 -41.44558716 88.33728027 C-41.46885469 85.7285938 -41.46998165 83.12050085 -41.46875 80.51171875 C-41.47585871 78.68479684 -41.48355874 76.85787714 -41.49182129 75.03096008 C-41.50524329 71.20718172 -41.50684557 67.38360973 -41.50097656 63.55981445 C-41.4950883 58.68087853 -41.52564634 53.80294038 -41.56609344 48.9241972 C-41.59205737 45.15184781 -41.5948399 41.37973575 -41.59120178 37.60730934 C-41.59288548 35.80971588 -41.60245515 34.01211055 -41.62034607 32.21460533 C-41.79744524 12.2196793 -41.79744524 12.2196793 -34.02453613 3.88066101 C-23.94784073 -5.7643541 -12.05484446 -6.45188858 0 0 Z " fill="#FDFDFD" transform="translate(117,84)"/>
<path d="M0 0 C3.75242849 1.91627576 6.4324794 4.02164149 9.125 7.3125 C9.59035156 7.83070312 10.05570313 8.34890625 10.53515625 8.8828125 C14.80869924 14.38246949 14.85765224 19.95688273 14.6015625 26.75 C13.54776748 34.62754965 8.99901834 38.82897604 3.1875 43.8671875 C-2.72343379 48.00931913 -8.88434123 48.15590037 -15.875 47.3125 C-23.32272026 44.9156508 -28.19339274 41.07390167 -32.05859375 34.2109375 C-35.44582746 27.38958794 -35.80889749 22.03627794 -33.75 14.75 C-31.25039428 8.05750726 -27.38541197 3.88715012 -21.1875 0.375 C-14.07024841 -2.85234231 -7.23954202 -2.92943326 0 0 Z " fill="#FCFCFC" transform="translate(174.875,81.6875)"/>
</svg>
